<svg width="24" height="24" viewBox="0 0 24 24" fill="none" xmlns="http://www.w3.org/2000/svg">
  <path d="M17.94 17.94C16.2306 19.243 14.1491 19.9649 12 20C5 20 1 12 1 12C2.24389 9.68192 3.96914 7.65661 6.06 6.06M9.9 4.24C10.5883 4.0789 11.2931 3.99836 12 4C19 4 23 12 23 12C22.393 13.1356 21.6691 14.2048 20.84 15.19M14.12 14.12C13.8454 14.4148 13.5141 14.6512 13.1462 14.8151C12.7782 14.9791 12.3809 15.0673 11.9781 15.0744C11.5753 15.0815 11.1747 15.0074 10.8019 14.8565C10.4291 14.7056 10.0917 14.4811 9.80385 14.1962C9.51597 13.9113 9.29326 13.5778 9.14351 13.2089C8.99376 12.8399 8.91957 12.4421 8.92551 12.042C8.93145 11.6419 9.01722 11.2475 9.17799 10.8825C9.33875 10.5175 9.57107 10.1891 9.86 9.92M1 1L23 23" stroke="currentColor" stroke-width="2" stroke-linecap="round" stroke-linejoin="round"/>
</svg> 