<svg width="24" height="24" viewBox="0 0 24 24" fill="none" xmlns="http://www.w3.org/2000/svg">
  <path d="M12.22 2H11.78C10.5558 2 9.36228 2.36228 8.34769 3.04048C7.3331 3.71868 6.54467 4.68393 6.08637 5.81998C5.62808 6.95603 5.52039 8.21445 5.78043 9.41818C6.04047 10.6219 6.65588 11.7118 7.54 12.54L6.54 13.54C6.39421 13.686 6.30106 13.8769 6.27418 14.0801C6.2473 14.2833 6.28773 14.4886 6.39 14.67L7.83 17.13C7.92453 17.3026 8.07453 17.4426 8.25791 17.5279C8.44129 17.6132 8.64853 17.6395 8.85 17.603L11.39 17.11C11.5926 17.0726 11.7786 16.9766 11.9245 16.8345C12.0704 16.6924 12.1694 16.5104 12.208 16.31L12.5 14.87C13.3282 15.7541 14.4181 16.3695 15.6218 16.6296C16.8256 16.8896 18.084 16.7819 19.2201 16.3236C20.3561 15.8653 21.3214 15.0769 21.9996 14.0623C22.6778 13.0477 23.04 11.8542 23.04 10.63V10.19C23.04 8.96578 22.6778 7.77228 21.9996 6.75769C21.3214 5.7431 20.3561 4.95467 19.2201 4.49637C18.084 4.03808 16.8256 3.93039 15.6218 4.19043C14.4181 4.45047 13.3282 5.06588 12.5 5.95L11.5 4.95C10.6718 4.06588 9.5819 3.45047 8.37818 3.19043C7.17445 2.93039 5.91603 3.03808 4.77998 3.49637C3.64393 3.95467 2.67868 4.7431 2.00048 5.75769C1.32228 6.77228 0.96 7.96578 0.96 9.19V9.63C0.96 10.8542 1.32228 12.0477 2.00048 13.0623C2.67868 14.0769 3.64393 14.8653 4.77998 15.3236C5.91603 15.7819 7.17445 15.8896 8.37818 15.6296C9.5819 15.3695 10.6718 14.7541 11.5 13.87L12.5 14.87C12.5386 15.0704 12.6376 15.2524 12.7835 15.3945C12.9294 15.5366 13.1154 15.6326 13.318 15.67L15.858 16.163C16.0595 16.1995 16.2667 16.1732 16.4501 16.0879C16.6335 16.0026 16.7835 15.8626 16.878 15.69L18.318 13.23C18.4203 13.0486 18.4607 12.8433 18.4338 12.6401C18.4069 12.4369 18.3138 12.246 18.168 12.1L17.168 11.1C18.0521 10.2718 18.6675 9.1819 18.9276 7.97818C19.1876 6.77445 19.0799 5.51603 18.6216 4.37998C18.1633 3.24393 17.3749 2.27868 16.3603 1.60048C15.3457 0.92228 14.1522 0.56 12.928 0.56H12.22Z" stroke="currentColor" stroke-width="2" stroke-linecap="round" stroke-linejoin="round"/>
  <path d="M12 15C13.6569 15 15 13.6569 15 12C15 10.3431 13.6569 9 12 9C10.3431 9 9 10.3431 9 12C9 13.6569 10.3431 15 12 15Z" stroke="currentColor" stroke-width="2" stroke-linecap="round" stroke-linejoin="round"/>
</svg> 