<?xml version="1.0" encoding="UTF-8"?>
<svg version="1.1" xmlns="http://www.w3.org/2000/svg" width="200" height="246">
<path d="M0 0 C11 0 11 0 13.89770508 2.77880859 C14.64714951 4.04464918 15.35270915 5.3371909 16.01953125 6.6484375 C16.41146164 7.3349942 16.80339203 8.0215509 17.2071991 8.72891235 C18.44912428 10.92453436 19.63065373 13.14656884 20.8125 15.375 C21.6231005 16.83417812 22.43752418 18.2912393 23.25585938 19.74609375 C24.77794625 22.46077722 26.27418962 25.18678358 27.74926758 27.92724609 C30.37940634 32.68654481 33.20232771 37.33721285 36 42 C36.33 28.14 36.66 14.28 37 0 C39.64 0 42.28 0 45 0 C45 18.15 45 36.3 45 55 C35 55 35 55 32.77001953 53.19018555 C32.08335205 51.92621948 32.08335205 51.92621948 31.3828125 50.63671875 C30.84414551 49.69513916 30.30547852 48.75355957 29.75048828 47.78344727 C29.21407715 46.76178467 28.67766602 45.74012207 28.125 44.6875 C26.93940275 42.58486348 25.75186747 40.48331868 24.5625 38.3828125 C23.9746875 37.31836914 23.386875 36.25392578 22.78125 35.15722656 C20.06797674 30.34800921 17.10578908 25.70878008 14.125 21.0625 C12.43375 18.401875 10.7425 15.74125 9 13 C8.67 26.86 8.34 40.72 8 55 C5.36 55 2.72 55 0 55 C0 36.85 0 18.7 0 0 Z " fill="#001F3F" transform="translate(1,184)"/>
<path d="M0 0 C4.41956742 3.27558256 6.65028385 6.6619581 7.91015625 11.9921875 C7.97203125 12.8378125 8.03390625 13.6834375 8.09765625 14.5546875 C4.13765625 15.0496875 4.13765625 15.0496875 0.09765625 15.5546875 C-3.90234375 8.8046875 -3.90234375 8.8046875 -3.90234375 6.5546875 C-9.54283529 3.96730606 -14.79160271 3.91625187 -20.90234375 4.5546875 C-25.17814614 6.31082062 -27.1317107 8.45656699 -29.27734375 12.4296875 C-32.16532023 19.74025557 -32.14321924 28.63705422 -29.77734375 36.1171875 C-27.13599468 40.9596608 -24.25611382 43.77009748 -18.90234375 45.5546875 C-13.27843289 45.92346854 -9.7672174 45.7225122 -4.90234375 42.5546875 C-2.37886723 39.85096265 -1.15196595 37.01517975 0.09765625 33.5546875 C3.06765625 33.8846875 6.03765625 34.2146875 9.09765625 34.5546875 C7.22794588 42.15038588 4.65259843 46.20437515 -1.90234375 50.5546875 C-8.83433154 54.38911382 -15.9947988 54.57818929 -23.52734375 52.4296875 C-31.43677512 49.43953662 -35.51030317 44.53474385 -38.96875 36.9375 C-42.14646745 28.82700778 -41.56044475 19.74286069 -38.90234375 11.5546875 C-35.72702537 5.44830599 -30.45547954 0.01176362 -24.03515625 -2.62109375 C-15.65054685 -4.82701967 -7.5563355 -4.34950043 0 0 Z " fill="#001F3F" transform="translate(94.90234375,186.4453125)"/>
<path d="M0 0 C5.5869911 5.84094524 8.20213859 13.12686779 9.125 21.125 C8.75 23.875 8.75 23.875 7.0625 25.6875 C1.53904436 28.52386911 -4.57107517 28.05829589 -10.625 28.0625 C-11.54539062 28.07474609 -12.46578125 28.08699219 -13.4140625 28.09960938 C-18.75195125 28.11104771 -23.23518645 27.76051697 -28.25 25.875 C-28.91 25.215 -29.57 24.555 -30.25 23.875 C-30.12053964 15.84845739 -27.86595112 7.47711961 -22.83203125 1.0703125 C-15.55904401 -5.52022286 -7.691102 -5.02879746 0 0 Z " fill="#001E3F" transform="translate(59.25,123.125)"/>
<path d="M0 0 C4.95324033 6.60432044 9.14199758 14.56038217 9.25 23 C7.75 25.5625 7.75 25.5625 5.25 27 C0.00455196 28.18445601 -5.21208219 28.21803335 -10.5625 28.25 C-11.41392578 28.270625 -12.26535156 28.29125 -13.14257812 28.3125 C-18.81501708 28.3470617 -24.78315638 28.01829628 -29.75 25 C-32.02505961 19.43827155 -28.72337745 13.29313952 -26.75 8 C-23.9086291 2.69610766 -20.12472877 -1.63186671 -14.4375 -3.9375 C-9.03327571 -4.06317963 -4.40964513 -3.20701464 0 0 Z " fill="#001E3F" transform="translate(151.75,123)"/>
<path d="M0 0 C5.42975829 5.07564362 9.6279796 13.27281273 9.97265625 20.828125 C9.94010417 22.78125 9.90755208 24.734375 9.875 26.6875 C4.02291501 30.06370288 -2.4354977 29.86952045 -9 29.875 C-9.76441406 29.88724609 -10.52882813 29.89949219 -11.31640625 29.91210938 C-17.17375501 29.92702622 -23.1210012 29.65941476 -28.16015625 26.3515625 C-29.91670034 23.32205731 -28.69816763 20.62916053 -27.921875 17.38671875 C-25.48318149 9.1262422 -22.56232829 3.19919526 -14.8125 -1.1875 C-9.17182798 -2.90838299 -5.37653252 -2.25814366 0 0 Z " fill="#001E3F" transform="translate(104.125,24.3125)"/>
<path d="M0 0 C6.6825 -0.12375 6.6825 -0.12375 13.5 -0.25 C15.58344727 -0.30462402 15.58344727 -0.30462402 17.70898438 -0.36035156 C24.95654711 -0.42517396 29.92397639 -0.08963128 36 4 C38.89927153 7.41665507 40.22272133 10.56933012 40.4375 15.0625 C39.84531135 20.39219786 38.53651767 23.50500984 34.6875 27.25 C28.81010289 31.0771423 23.40371912 31.26444935 16.625 31.125 C12.355625 31.063125 12.355625 31.063125 8 31 C8 38.92 8 46.84 8 55 C5.36 55 2.72 55 0 55 C0 36.85 0 18.7 0 0 Z M8 6 C8 11.94 8 17.88 8 24 C12.3003125 24.12375 12.3003125 24.12375 16.6875 24.25 C18.02880981 24.30462402 18.02880981 24.30462402 19.3972168 24.36035156 C23.38634186 24.41582442 25.51647692 24.28836241 29.01953125 22.19921875 C31.75978016 19.15629934 32 17.05475733 32 13 C31.17020292 10.08921756 31.17020292 10.08921756 29 8 C22.42902858 4.93354667 15.09966657 5.86476826 8 6 Z " fill="#001F3F" transform="translate(154,184)"/>
<path d="M0 0 C11.88 0 23.76 0 36 0 C36 1.98 36 3.96 36 6 C26.76 6 17.52 6 8 6 C8 11.28 8 16.56 8 22 C16.25 22 24.5 22 33 22 C33 24.31 33 26.62 33 29 C24.75 29 16.5 29 8 29 C8 37.58 8 46.16 8 55 C5.36 55 2.72 55 0 55 C0 36.85 0 18.7 0 0 Z " fill="#001F3F" transform="translate(111,184)"/>
<path d="M0 0 C0.66 0 1.32 0 2 0 C2.10957031 1.25554688 2.21914062 2.51109375 2.33203125 3.8046875 C3.63252654 21.96605768 3.63252654 21.96605768 13 37 C18.52873893 41.49199363 24.4948765 46.05489433 31 49 C31 49.66 31 50.32 31 51 C27.08630988 49.83647051 23.48966813 48.31152553 19.8125 46.5625 C7.98854898 41.1558901 -0.32711821 39.76471137 -12.5625 44.3125 C-17.51634114 46.30795826 -22.24517687 48.57773161 -27 51 C-27.66 51 -28.32 51 -29 51 C-29 50.34 -29 49.68 -29 49 C-27.1640625 47.7734375 -27.1640625 47.7734375 -24.625 46.375 C-14.91094708 40.69813503 -6.1258734 34.8486887 -3.07421875 23.58203125 C-1.39434083 15.77179315 -0.43055719 7.9727314 0 0 Z " fill="#001E3E" transform="translate(94,58)"/>
<path d="M0 0 C3.20447947 2.4381909 4.69295309 4.1511056 6.0625 7.9375 C5.97889684 12.03405499 4.56241498 13.86815947 2 17 C-1.53430656 19.35620437 -2.83571287 19.48991613 -7 19 C-12.57894737 15.84210526 -12.57894737 15.84210526 -14 13 C-14.70153846 5.86769231 -14.70153846 5.86769231 -11.625 2.0625 C-7.32198817 -1.31843787 -5.37649402 -1.27577824 0 0 Z " fill="#001F3F" transform="translate(53,99)"/>
<path d="M0 0 C2.92937654 1.81310142 5.43647949 3.87295899 7 7 C7.40417552 9.96395382 7.56382171 12.08904926 5.953125 14.69140625 C3.2305096 18.01459858 1.5226254 19.79236926 -2.75 20.375 C-7.2753858 19.8528401 -8.7671103 18.15770622 -12 15 C-13.45147903 12.09704195 -13.37239025 10.22738221 -13 7 C-9.6221874 1.54256397 -6.46231639 -0.74565189 0 0 Z " fill="#001F3F" transform="translate(98,1)"/>
<path d="M0 0 C3.15306544 2.88471945 4.74930027 4.79664128 5.625 9 C4.75004681 13.19977529 2.99012644 14.93868007 0 18 C-2.90295805 19.45147903 -4.77261779 19.37239025 -8 19 C-10.92937654 17.18689858 -13.43647949 15.12704101 -15 12 C-15.40203796 9.05172163 -15.54942715 6.91854037 -13.98828125 4.30859375 C-9.71859313 -1.01248904 -6.51410977 -1.68468356 0 0 Z " fill="#001F3F" transform="translate(146,99)"/>
</svg>
