<?xml version="1.0" encoding="UTF-8"?>
<svg version="1.1" xmlns="http://www.w3.org/2000/svg" width="200" height="156">
<path d="M0 0 C5.5869911 5.84094524 8.20213859 13.12686779 9.125 21.125 C8.75 23.875 8.75 23.875 7.0625 25.6875 C1.53904436 28.52386911 -4.57107517 28.05829589 -10.625 28.0625 C-11.54539062 28.07474609 -12.46578125 28.08699219 -13.4140625 28.09960938 C-18.75195125 28.11104771 -23.23518645 27.76051697 -28.25 25.875 C-28.91 25.215 -29.57 24.555 -30.25 23.875 C-30.12053964 15.84845739 -27.86595112 7.47711961 -22.83203125 1.0703125 C-15.55904401 -5.52022286 -7.691102 -5.02879746 0 0 Z " fill="#001E3F" transform="translate(59.25,123.125)"/>
<path d="M0 0 C4.95324033 6.60432044 9.14199758 14.56038217 9.25 23 C7.75 25.5625 7.75 25.5625 5.25 27 C0.00455196 28.18445601 -5.21208219 28.21803335 -10.5625 28.25 C-11.41392578 28.270625 -12.26535156 28.29125 -13.14257812 28.3125 C-18.81501708 28.3470617 -24.78315638 28.01829628 -29.75 25 C-32.02505961 19.43827155 -28.72337745 13.29313952 -26.75 8 C-23.9086291 2.69610766 -20.12472877 -1.63186671 -14.4375 -3.9375 C-9.03327571 -4.06317963 -4.40964513 -3.20701464 0 0 Z " fill="#001E3F" transform="translate(151.75,123)"/>
<path d="M0 0 C5.42975829 5.07564362 9.6279796 13.27281273 9.97265625 20.828125 C9.94010417 22.78125 9.90755208 24.734375 9.875 26.6875 C4.02291501 30.06370288 -2.4354977 29.86952045 -9 29.875 C-9.76441406 29.88724609 -10.52882813 29.89949219 -11.31640625 29.91210938 C-17.17375501 29.92702622 -23.1210012 29.65941476 -28.16015625 26.3515625 C-29.91670034 23.32205731 -28.69816763 20.62916053 -27.921875 17.38671875 C-25.48318149 9.1262422 -22.56232829 3.19919526 -14.8125 -1.1875 C-9.17182798 -2.90838299 -5.37653252 -2.25814366 0 0 Z " fill="#001E3F" transform="translate(104.125,24.3125)"/>
<path d="M0 0 C0.66 0 1.32 0 2 0 C2.10957031 1.25554688 2.21914062 2.51109375 2.33203125 3.8046875 C3.63252654 21.96605768 3.63252654 21.96605768 13 37 C18.52873893 41.49199363 24.4948765 46.05489433 31 49 C31 49.66 31 50.32 31 51 C27.08630988 49.83647051 23.48966813 48.31152553 19.8125 46.5625 C7.98854898 41.1558901 -0.32711821 39.76471137 -12.5625 44.3125 C-17.51634114 46.30795826 -22.24517687 48.57773161 -27 51 C-27.66 51 -28.32 51 -29 51 C-29 50.34 -29 49.68 -29 49 C-27.1640625 47.7734375 -27.1640625 47.7734375 -24.625 46.375 C-14.91094708 40.69813503 -6.1258734 34.8486887 -3.07421875 23.58203125 C-1.39434083 15.77179315 -0.43055719 7.9727314 0 0 Z " fill="#001E3E" transform="translate(94,58)"/>
<path d="M0 0 C3.20447947 2.4381909 4.69295309 4.1511056 6.0625 7.9375 C5.97889684 12.03405499 4.56241498 13.86815947 2 17 C-1.53430656 19.35620437 -2.83571287 19.48991613 -7 19 C-12.57894737 15.84210526 -12.57894737 15.84210526 -14 13 C-14.70153846 5.86769231 -14.70153846 5.86769231 -11.625 2.0625 C-7.32198817 -1.31843787 -5.37649402 -1.27577824 0 0 Z " fill="#001F3F" transform="translate(53,99)"/>
<path d="M0 0 C2.92937654 1.81310142 5.43647949 3.87295899 7 7 C7.40417552 9.96395382 7.56382171 12.08904926 5.953125 14.69140625 C3.2305096 18.01459858 1.5226254 19.79236926 -2.75 20.375 C-7.2753858 19.8528401 -8.7671103 18.15770622 -12 15 C-13.45147903 12.09704195 -13.37239025 10.22738221 -13 7 C-9.6221874 1.54256397 -6.46231639 -0.74565189 0 0 Z " fill="#001F3F" transform="translate(98,1)"/>
<path d="M0 0 C3.15306544 2.88471945 4.74930027 4.79664128 5.625 9 C4.75004681 13.19977529 2.99012644 14.93868007 0 18 C-2.90295805 19.45147903 -4.77261779 19.37239025 -8 19 C-10.92937654 17.18689858 -13.43647949 15.12704101 -15 12 C-15.40203796 9.05172163 -15.54942715 6.91854037 -13.98828125 4.30859375 C-9.71859313 -1.01248904 -6.51410977 -1.68468356 0 0 Z " fill="#001F3F" transform="translate(146,99)"/>
</svg>
