<svg width="400" height="300" viewBox="0 0 400 300" fill="none" xmlns="http://www.w3.org/2000/svg">
  <!-- Background -->
  <rect width="400" height="300" fill="#F8FAFC"/>
  
  <!-- Cross in background -->
  <path d="M350 50L350 80M335 65L365 65" stroke="#E2E8F0" stroke-width="3" stroke-linecap="round"/>
  
  <!-- Person reading -->
  <circle cx="200" cy="120" r="25" fill="#1E293B"/>
  <rect x="175" y="145" width="50" height="80" rx="25" fill="#1E293B"/>
  
  <!-- Arms -->
  <rect x="160" y="160" width="20" height="60" rx="10" fill="#1E293B"/>
  <rect x="220" y="160" width="20" height="60" rx="10" fill="#1E293B"/>
  
  <!-- Bible -->
  <rect x="140" y="180" width="60" height="80" rx="5" fill="#F59E0B"/>
  <rect x="145" y="185" width="50" height="70" rx="3" fill="#FEF3C7"/>
  <line x1="150" y1="200" x2="190" y2="200" stroke="#1E293B" stroke-width="1"/>
  <line x1="150" y1="210" x2="185" y2="210" stroke="#1E293B" stroke-width="1"/>
  <line x1="150" y1="220" x2="180" y2="220" stroke="#1E293B" stroke-width="1"/>
  <line x1="150" y1="230" x2="175" y2="230" stroke="#1E293B" stroke-width="1"/>
  
  <!-- Light rays -->
  <path d="M200 50L180 80M200 50L220 80M200 50L200 80" stroke="#FEF3C7" stroke-width="2" stroke-linecap="round"/>
  
  <!-- Decorative elements -->
  <circle cx="80" cy="80" r="3" fill="#F59E0B"/>
  <circle cx="320" cy="120" r="3" fill="#F59E0B"/>
  <circle cx="100" cy="220" r="3" fill="#F59E0B"/>
  <circle cx="300" cy="200" r="3" fill="#F59E0B"/>
</svg> 